<?xml version="1.0" encoding="UTF-8" standalone="no"?>
<svg
   viewBox="0 0 1177.8279 307"
   version="1.1"
   id="svg11"
   sodipodi:docname="logo_vectorized_reworked.svg"
   xml:space="preserve"
   inkscape:version="1.4.2 (f4327f4, 2025-05-13)"
   inkscape:export-filename="logo_vectorized_reworked.png"
   inkscape:export-xdpi="96"
   inkscape:export-ydpi="96"
   width="1177.8279"
   height="307"
   xmlns:inkscape="http://www.inkscape.org/namespaces/inkscape"
   xmlns:sodipodi="http://sodipodi.sourceforge.net/DTD/sodipodi-0.dtd"
   xmlns="http://www.w3.org/2000/svg"
   xmlns:svg="http://www.w3.org/2000/svg"><defs
     id="defs11" /><sodipodi:namedview
     id="namedview11"
     pagecolor="#ffffff"
     bordercolor="#000000"
     borderopacity="0.25"
     inkscape:showpageshadow="2"
     inkscape:pageopacity="0.0"
     inkscape:pagecheckerboard="0"
     inkscape:deskcolor="#d1d1d1"
     inkscape:zoom="1.1396484"
     inkscape:cx="598.43018"
     inkscape:cy="245.25108"
     inkscape:window-width="2560"
     inkscape:window-height="1369"
     inkscape:window-x="2552"
     inkscape:window-y="-8"
     inkscape:window-maximized="1"
     inkscape:current-layer="svg11" /><g
     fill="#000000"
     stroke="none"
     id="g11"
     transform="translate(-180,-268)"><path
       d="m 180,308 v 22 h 42 l 1,1 h 3 l 1,1 h 3 l 1,1 h 1 l 1,1 h 2 l 1,1 h 1 l 2,2 h 1 l 2,2 h 1 l 7,7 v 1 l 3,3 v 1 l 1,1 v 1 l 1,1 v 1 l 1,1 v 2 l 1,1 v 2 l 1,1 v 4 l 1,1 v 96 h 50 l 1,1 h 4 l 1,1 h 2 l 1,1 h 1 l 1,1 h 1 l 1,1 h 1 l 1,1 h 1 l 1,1 h 1 l 11,11 v 1 l 2,2 v 1 l 1,1 v 1 l 1,1 v 2 l 1,1 v 1 l 1,1 v 4 l 1,1 v 76 h 14 l 1,-1 h 2 l 1,-1 h 1 l 1,-1 h 1 l 2,-2 h 1 l 2,-2 v -1 l 2,-2 v -1 l 1,-1 v -1 l 1,-1 v -1 l 1,-1 v -3 l 1,-1 v -21 l 1,-1 h 1 l 1,1 v 19 l 1,1 v 3 l 1,1 v 2 l 1,1 v 1 l 2,2 v 1 l 6,6 h 1 l 1,1 h 1 l 1,1 h 1 l 1,1 h 3 l 1,1 h 39 v -19 l -1,-1 v -1 l -1,-1 v -1 l -3,-3 h -1 l -2,-2 h -1 l -1,-1 h -1 l -1,-1 h -2 l -1,-1 h -1 l -1,-1 h -2 l -1,-1 h -1 l -2,-2 h -1 l -6,-6 v -1 l -2,-2 v -1 l -1,-1 v -1 l -1,-1 v -2 l -1,-1 v -2 l -1,-1 v -4 l -1,-1 v -45 l -1,-1 v -3 l -1,-1 v -2 l -1,-1 v -1 l -1,-1 v -1 l -1,-1 v -1 l -2,-2 v -1 l -8,-8 h -1 l -2,-2 h -1 l -1,-1 h -1 l -1,-1 h -1 l -1,-1 h -3 l -1,-1 h -2 l -1,-1 h -8 l -1,-1 h -34 l -1,1 -1,-1 h -17 l -1,1 -1,-1 v -81 l -1,-1 v -6 l -1,-1 v -3 l -1,-1 v -1 l -1,-1 v -2 l -1,-1 v -1 l -1,-1 v -1 l -1,-1 v -1 l -1,-1 v -1 l -3,-3 v -1 l -10,-10 h -1 l -2,-2 h -1 l -2,-2 h -1 l -1,-1 h -1 l -1,-1 h -1 l -1,-1 h -1 l -1,-1 h -3 l -1,-1 h -2 l -1,-1 h -4 l -1,-1 z"
       id="path10"
       style="fill:#027dc6;fill-opacity:1" /><path
       d="m 180,268 v 24 h 80 l 1,1 h 5 l 1,1 h 3 l 1,1 h 3 l 1,1 h 2 l 1,1 h 1 l 1,1 h 2 l 1,1 h 1 l 1,1 h 1 l 2,2 h 1 l 1,1 h 1 l 2,2 h 1 l 4,4 h 1 l 9,9 v 1 l 3,3 v 1 l 2,2 v 1 l 2,2 v 1 l 1,1 v 1 l 1,1 v 1 l 1,1 v 2 l 1,1 v 1 l 1,1 v 2 l 1,1 v 3 l 1,1 v 4 l 1,1 v 9 l 1,1 v 62 h 47 l 1,1 h 4 l 1,1 h 3 l 1,1 h 2 l 1,1 h 1 l 1,1 h 1 l 1,1 h 1 l 1,1 h 1 l 1,1 h 1 l 3,3 h 1 l 4,4 h 1 l 4,4 v 1 l 3,3 v 1 l 2,2 v 1 l 1,1 v 1 l 1,1 v 1 l 1,1 v 1 l 1,1 v 1 l 1,1 v 2 l 1,1 v 3 l 1,1 v 5 l 1,1 v 43 l 1,1 v 4 l 1,1 v 1 l 5,5 h 1 l 1,1 h 1 l 1,1 h 2 l 1,1 h 1 l 1,1 h 1 l 1,1 h 1 l 1,1 h 1 l 2,2 h 1 l 7,7 v 1 l 2,2 v 1 l 1,1 v 1 l 1,1 v 2 l 1,1 v 2 l 1,1 v 19 h 15 l 1,1 h 1 l 1,-1 h 3 l 1,1 h 1 l 1,-1 h 2 l 1,-1 v -17 l -1,-1 v -3 l -1,-1 v -2 l -1,-1 v -1 l -2,-2 v -1 l -8,-8 h -1 l -1,-1 h -1 l -1,-1 h -1 l -1,-1 v -1 l 1,-1 h 1 l 1,1 h 1 l 1,-1 1,1 h 1 l 1,-1 1,1 h 4 l 1,-1 1,1 h 3 l 1,1 h 2 l 1,1 h 1 l 2,2 h 1 l 5,5 v 1 l 1,1 v 1 l 2,2 v 2 l 1,1 v 2 l 1,1 v 19 l 1,1 v 2 h 28 v -3 l 1,-1 v -1 l -1,-1 v -16 l -1,-1 v -4 l -1,-1 v -2 l -1,-1 v -2 l -1,-1 v -1 l -2,-2 v -1 l -2,-2 v -1 l -7,-7 h -1 l -2,-2 h -1 l -1,-1 h -1 l -1,-1 h -1 l -1,-1 h -1 l -1,-1 h -1 l -1,-1 h -3 l -1,-1 h -27 l -1,-1 h -2 l -2,-2 h -1 l -3,-3 v -1 l -1,-1 v -1 l -1,-1 v -1 l -1,-1 v -4 l -1,-1 v -52 l -1,-1 v -5 l -1,-1 v -3 l -1,-1 v -2 l -1,-1 v -1 l -1,-1 v -1 l -1,-1 v -1 l -1,-1 v -1 l -1,-1 v -1 l -2,-2 v -1 l -4,-4 v -1 l -5,-5 h -1 l -3,-3 h -1 l -2,-2 h -1 l -1,-1 h -1 l -2,-2 h -2 l -1,-1 h -1 l -1,-1 h -2 l -1,-1 h -2 l -1,-1 h -5 l -1,-1 h -42 l -1,-1 v -60 l -1,-1 v -5 l -1,-1 v -3 l -1,-1 v -2 l -1,-1 v -2 l -1,-1 v -2 l -1,-1 v -1 l -1,-1 v -1 l -1,-1 v -1 l -1,-1 v -1 l -1,-1 v -1 l -2,-2 v -1 l -2,-2 v -1 l -3,-3 v -1 l -13,-13 h -1 l -3,-3 h -1 l -2,-2 h -1 l -2,-2 h -1 l -1,-1 h -1 l -1,-1 h -1 l -1,-1 h -1 l -1,-1 h -1 l -1,-1 h -2 l -1,-1 h -1 l -1,-1 h -2 l -1,-1 h -3 l -1,-1 h -3 l -1,-1 h -3 l -1,-1 h -6 l -1,-1 z"
       id="path11"
       style="fill:#1195e1;fill-opacity:1"
       inkscape:export-filename="path11.png"
       inkscape:export-xdpi="96"
       inkscape:export-ydpi="96" /></g><text
     xml:space="preserve"
     style="font-style:normal;font-variant:normal;font-weight:normal;font-stretch:normal;font-size:171.094px;font-family:Geist;-inkscape-font-specification:'Geist, @wght=675';font-variant-ligatures:normal;font-variant-caps:normal;font-variant-numeric:normal;font-variant-east-asian:normal;font-variation-settings:'wght' 675;text-align:start;writing-mode:lr-tb;direction:ltr;text-anchor:start;fill:#404547;fill-opacity:1;stroke:#373748;stroke-width:0"
     x="395.79785"
     y="184.9744"
     id="text11"
     transform="scale(0.85364736,1.1714439)"><tspan
       sodipodi:role="line"
       id="tspan11"
       x="395.79785"
       y="184.9744"
       style="font-style:normal;font-variant:normal;font-weight:normal;font-stretch:normal;font-size:171.094px;font-family:Geist;-inkscape-font-specification:'Geist, @wght=675';font-variant-ligatures:normal;font-variant-caps:normal;font-variant-numeric:normal;font-variant-east-asian:normal;font-variation-settings:'wght' 675;stroke-width:0">WATERFALL</tspan></text></svg>
